<?xml version="1.0" standalone="no"?>
<!DOCTYPE svg PUBLIC "-//W3C//DTD SVG 20010904//EN"
 "http://www.w3.org/TR/2001/REC-SVG-20010904/DTD/svg10.dtd">
<svg version="1.0" xmlns="http://www.w3.org/2000/svg"
 width="600.000000pt" height="600.000000pt" viewBox="0 0 600.000000 600.000000"
 preserveAspectRatio="xMidYMid meet">
<metadata>
Created by potrace 1.11, written by Peter Selinger 2001-2013
</metadata>
<g transform="translate(0.000000,600.000000) scale(0.100000,-0.100000)"
fill="#000000" stroke="none">
<path d="M1260 5839 c7 -11 14 -18 17 -15 8 8 -5 36 -17 36 -7 0 -7 -6 0 -21z"/>
<path d="M1070 5658 c0 -7 7 -22 15 -32 12 -16 15 -17 15 -4 0 24 -11 48 -21
48 -5 0 -9 -6 -9 -12z"/>
<path d="M1160 5645 c0 -23 55 -148 58 -133 2 9 -7 40 -19 70 -22 53 -39 80
-39 63z"/>
<path d="M1485 5340 c3 -5 8 -10 11 -10 2 0 4 5 4 10 0 6 -5 10 -11 10 -5 0
-7 -4 -4 -10z"/>
<path d="M3090 5290 c0 -5 5 -10 10 -10 6 0 10 5 10 10 0 6 -4 10 -10 10 -5 0
-10 -4 -10 -10z"/>
<path d="M2110 5138 c0 -9 5 -20 10 -23 13 -8 13 5 0 25 -8 13 -10 13 -10 -2z"/>
<path d="M970 5075 c0 -8 2 -15 4 -15 2 0 6 7 10 15 3 8 1 15 -4 15 -6 0 -10
-7 -10 -15z"/>
<path d="M1675 4990 c3 -5 8 -10 11 -10 2 0 4 5 4 10 0 6 -5 10 -11 10 -5 0
-7 -4 -4 -10z"/>
<path d="M1560 4930 c-6 -24 -17 -73 -24 -111 -8 -37 -25 -100 -39 -141 -14
-40 -28 -85 -32 -100 -3 -16 -12 -28 -20 -28 -10 0 -12 -9 -8 -37 3 -21 10
-42 16 -48 6 -7 8 -2 4 13 -3 15 1 30 12 41 10 10 23 47 30 82 13 65 35 157
71 284 11 40 15 74 10 79 -5 5 -13 -10 -20 -34z"/>
<path d="M507 4933 c-4 -3 -7 -11 -7 -17 0 -6 5 -5 12 2 6 6 9 14 7 17 -3 3
-9 2 -12 -2z"/>
<path d="M981 4924 c0 -11 3 -14 6 -6 3 7 2 16 -1 19 -3 4 -6 -2 -5 -13z"/>
<path d="M3048 4840 c-12 -38 -10 -66 3 -53 6 6 9 26 7 44 -3 32 -3 33 -10 9z"/>
<path d="M1710 4816 c0 -8 5 -18 10 -21 6 -3 10 1 10 9 0 8 -4 18 -10 21 -5 3
-10 -1 -10 -9z"/>
<path d="M1310 4786 c0 -31 109 -176 132 -176 21 0 -103 189 -124 190 -5 0 -8
-6 -8 -14z"/>
<path d="M1577 4768 c-19 -43 -54 -146 -62 -181 -10 -46 13 -22 29 31 8 26 26
76 40 111 30 74 29 71 16 71 -5 0 -16 -15 -23 -32z"/>
<path d="M1186 4704 c-3 -26 -6 -67 -6 -92 0 -67 17 -41 29 43 8 55 7 73 -3
83 -11 11 -14 5 -20 -34z"/>
<path d="M2171 4633 c0 -10 4 -27 9 -38 7 -17 9 -15 9 12 1 17 -3 35 -9 38 -5
3 -10 -2 -9 -12z"/>
<path d="M3172 4619 c2 -7 10 -15 17 -17 8 -3 12 1 9 9 -2 7 -10 15 -17 17 -8
3 -12 -1 -9 -9z"/>
<path d="M1627 4518 c6 -83 13 -118 23 -118 13 0 12 15 -2 100 -14 82 -27 93
-21 18z"/>
<path d="M2776 4555 c4 -8 8 -15 10 -15 2 0 4 7 4 15 0 8 -4 15 -10 15 -5 0
-7 -7 -4 -15z"/>
<path d="M1180 4493 c0 -22 2 -25 10 -13 13 20 13 40 0 40 -5 0 -10 -12 -10
-27z"/>
<path d="M1526 4492 c-4 -7 3 -26 15 -43 l21 -30 -22 -25 c-19 -19 -26 -22
-38 -11 -12 10 -12 6 1 -20 9 -17 22 -35 28 -39 8 -5 9 -2 1 12 -8 15 -1 28
39 73 48 54 67 91 29 56 -18 -17 -20 -16 -43 11 -16 18 -26 24 -31 16z"/>
<path d="M1235 4480 c-3 -5 -1 -10 4 -10 6 0 11 5 11 10 0 6 -2 10 -4 10 -3 0
-8 -4 -11 -10z"/>
<path d="M2800 4447 c0 -35 20 -130 30 -140 4 -5 2 28 -6 73 -13 84 -24 114
-24 67z"/>
<path d="M20 4421 c0 -6 4 -13 10 -16 6 -3 7 1 4 9 -7 18 -14 21 -14 7z"/>
<path d="M1437 4423 c-4 -3 -7 -20 -6 -37 l1 -31 9 34 c10 33 8 47 -4 34z"/>
<path d="M2161 4419 c-1 -18 44 -106 65 -129 8 -8 23 -26 35 -40 16 -21 16
-16 -5 27 -14 28 -36 67 -48 86 -13 19 -28 43 -35 53 -10 16 -12 16 -12 3z"/>
<path d="M2037 4413 c-4 -3 -2 -12 4 -20 9 -10 6 -19 -15 -38 -20 -19 -26 -31
-21 -48 10 -31 36 -49 63 -44 41 8 39 -30 -4 -138 l-12 -31 -108 11 -107 10
-18 35 c-10 19 -21 53 -24 75 -14 109 -49 163 -75 115 -9 -16 -7 -30 10 -66
12 -28 20 -68 20 -100 l0 -54 -152 0 c-84 0 -182 -3 -218 -6 -63 -6 -65 -5
-81 23 -62 107 -93 153 -101 145 -6 -6 9 -42 35 -90 48 -85 47 -92 -9 -92 -24
0 -25 1 -19 65 4 42 2 65 -4 65 -6 0 -11 -8 -11 -17 0 -11 -3 -13 -9 -7 -6 5
-11 34 -13 64 l-3 55 -23 -85 c-12 -47 -23 -92 -23 -100 -1 -52 -9 -61 -46
-58 -30 2 -38 8 -43 28 -4 17 -8 21 -14 12 -4 -6 -5 -12 -1 -12 3 0 1 -9 -5
-21 -9 -16 -15 -18 -25 -9 -10 8 -14 7 -17 -5 -2 -11 -35 -28 -99 -49 -94 -31
-97 -32 -109 -13 -9 15 -9 22 -1 27 13 7 4 40 -11 40 -5 0 -6 -5 -3 -10 4 -6
2 -17 -5 -25 -6 -8 -10 -26 -8 -42 3 -25 -4 -32 -52 -61 -72 -43 -152 -122
-185 -183 -21 -40 -85 -210 -85 -228 0 -2 14 17 31 42 17 26 35 45 39 42 9 -6
-278 -873 -307 -930 -13 -25 -56 -83 -95 -130 -5 -5 20 72 54 172 60 173 62
182 45 200 -9 11 -17 29 -17 40 0 29 -11 35 -32 16 -12 -10 -32 -16 -53 -15
-44 3 -55 -16 -23 -42 14 -12 28 -28 31 -38 3 -9 22 -22 41 -29 35 -12 50 -39
23 -39 -7 0 -18 -5 -25 -12 -9 -9 -8 -16 3 -28 14 -15 14 -18 0 -30 -8 -7 -15
-22 -15 -35 0 -13 -10 -27 -26 -35 -23 -13 -25 -18 -19 -56 6 -44 -2 -58 -29
-48 -19 7 -21 45 -3 63 10 10 8 12 -8 9 -17 -3 -20 -12 -23 -64 -3 -56 -1 -62
23 -78 l26 -17 -24 -25 c-20 -20 -24 -34 -25 -85 -1 -54 1 -59 15 -47 14 12
14 10 0 -19 -10 -18 -17 -49 -16 -70 l1 -38 18 50 18 50 1 -37 c1 -21 -8 -61
-19 -90 -13 -34 -20 -77 -20 -122 0 -57 5 -78 31 -126 17 -32 43 -73 59 -91
29 -34 29 -34 30 -9 0 18 3 21 9 11 6 -10 20 -12 47 -8 42 7 73 38 74 74 0 21
-54 93 -70 93 -4 0 -16 -29 -25 -65 l-18 -66 -24 41 c-23 38 -24 45 -13 91 15
60 24 67 46 34 9 -14 20 -25 24 -25 15 0 17 37 4 55 -25 34 -15 97 41 264 30
90 53 167 50 171 -2 3 19 14 46 23 33 10 47 11 41 4 -6 -7 -36 -93 -67 -192
-32 -99 -60 -186 -63 -194 -4 -10 -1 -12 7 -6 8 4 27 11 45 15 17 4 39 11 49
15 14 6 17 2 17 -23 0 -36 14 -43 60 -28 41 13 56 50 18 44 -21 -3 -23 1 -24
42 -1 25 -5 55 -9 68 -6 18 -4 22 15 22 13 0 24 -8 27 -20 3 -11 11 -20 18
-20 6 0 20 -9 30 -20 22 -24 35 -26 35 -4 0 10 7 14 23 12 12 -1 33 5 47 15
13 9 30 17 36 17 17 0 26 -43 11 -52 -9 -6 -8 -12 4 -21 9 -7 18 -21 20 -32 7
-34 34 -28 52 11 15 30 20 34 32 24 20 -17 19 -44 -2 -62 -20 -18 -115 -60
-129 -57 -39 7 -48 -26 -10 -40 29 -12 38 -34 30 -77 -7 -38 -13 -40 -55 -18
-19 9 -41 13 -59 9 -25 -6 -30 -3 -36 19 -3 14 -12 26 -20 26 -19 0 -17 10 5
40 16 20 21 22 35 11 20 -17 46 -7 46 16 0 24 36 46 61 38 11 -4 19 -2 19 4 0
6 -8 11 -17 11 -10 0 -27 12 -39 27 -27 34 -59 26 -50 -13 6 -24 5 -25 -28
-19 -28 6 -35 4 -40 -13 -4 -11 -21 -25 -39 -32 -49 -18 -62 -27 -59 -40 1 -7
-5 -18 -14 -25 -19 -13 -11 -35 12 -35 23 0 16 -14 -20 -37 -38 -24 -45 -47
-35 -108 8 -43 47 -85 80 -85 11 0 31 12 44 26 l25 26 25 -23 c13 -13 25 -30
25 -36 0 -25 40 -53 75 -53 46 0 47 25 4 61 -39 31 -32 50 16 42 26 -4 36 -2
41 11 11 28 -15 48 -52 41 -43 -8 -52 10 -15 28 20 10 54 14 104 12 58 -1 79
2 90 14 9 9 23 22 31 29 9 7 16 28 16 46 0 45 25 64 82 64 44 0 47 -1 38 -19
-15 -28 5 -24 23 5 12 18 29 26 67 31 44 6 55 4 74 -14 12 -12 27 -21 33 -21
5 0 18 -9 28 -20 23 -26 67 -26 91 1 18 20 18 21 -3 37 -34 27 -44 56 -28 78
13 18 15 18 70 -10 49 -25 71 -29 157 -32 87 -3 99 -1 104 14 11 34 21 47 43
50 13 2 27 16 35 36 18 44 65 64 112 47 25 -9 38 -9 55 0 13 6 40 9 65 5 29
-4 46 -1 54 8 16 21 0 26 -69 23 -52 -2 -65 1 -77 17 -21 30 -3 39 73 38 59
-1 65 1 45 11 -17 10 -20 15 -10 25 18 18 24 15 56 -19 34 -37 62 -35 106 6
27 25 28 25 54 6 57 -39 80 -36 106 14 13 25 16 26 16 9 0 -11 -4 -24 -9 -30
-12 -12 5 -54 22 -54 21 0 28 12 15 27 -6 7 -8 16 -5 20 4 3 11 -7 18 -23 21
-53 26 -59 55 -60 16 0 39 -6 52 -13 20 -11 26 -10 41 3 26 24 53 10 49 -25
-3 -33 13 -40 27 -13 20 39 53 67 71 60 16 -6 16 -7 -1 -20 -11 -8 -16 -20
-12 -30 9 -23 -50 -88 -73 -81 -24 8 -38 -15 -16 -27 10 -6 16 -22 16 -48 0
-50 17 -61 42 -27 11 15 26 27 33 27 8 0 21 18 31 40 20 45 29 49 44 20 12
-22 36 -27 43 -7 3 9 9 7 24 -6 11 -9 27 -17 37 -17 9 0 27 -12 39 -26 19 -22
26 -24 49 -15 28 11 58 6 58 -9 0 -11 -29 -40 -39 -40 -4 0 -12 5 -19 12 -22
22 -23 1 -1 -36 11 -20 27 -36 35 -36 8 0 19 -11 24 -25 8 -22 14 -24 37 -19
16 4 31 9 36 11 14 8 7 32 -13 38 -24 8 -25 27 -4 60 20 30 28 31 56 5 17 -15
32 -19 65 -16 23 3 47 7 52 10 15 10 1 44 -25 61 -29 19 -30 30 -4 52 11 10
20 26 20 36 0 24 24 17 29 -9 6 -37 20 -45 51 -29 15 8 36 14 46 14 10 0 46 4
79 10 153 28 146 29 149 -19 1 -8 16 -22 34 -30 20 -9 34 -24 38 -40 14 -68
19 -75 51 -75 20 0 39 -8 53 -23 15 -16 28 -20 44 -16 17 4 33 -3 60 -27 32
-27 36 -36 30 -62 -5 -24 -1 -33 21 -51 18 -15 30 -36 34 -61 4 -27 12 -41 24
-43 24 -5 22 28 -4 72 -23 39 -22 89 1 94 14 2 20 -7 64 -98 14 -30 16 -31 11
-7 -12 58 44 14 69 -56 23 -61 41 -79 79 -75 56 6 58 32 8 173 -12 35 -2 55
29 55 32 0 102 -27 112 -44 4 -6 8 -7 8 -2 0 5 -7 17 -16 27 -12 13 -14 26 -9
46 5 20 9 24 14 13 3 -8 11 -15 16 -15 6 -1 36 -5 68 -9 41 -6 61 -5 72 4 12
10 18 10 29 1 15 -13 18 -10 44 38 11 21 10 27 -2 40 -13 13 -13 18 2 45 9 17
17 32 18 33 0 2 25 -7 55 -18 67 -25 73 -27 79 -26 3 0 15 -5 27 -11 26 -14
21 -42 -6 -35 -21 5 -37 -12 -45 -53 -7 -30 -5 -31 18 -27 21 4 26 1 26 -14 0
-32 56 -90 95 -97 20 -4 33 -11 30 -17 -4 -5 3 -9 14 -9 32 0 25 -30 -9 -43
-16 -6 -30 -15 -30 -20 0 -8 24 -5 71 9 22 6 59 -41 59 -75 0 -15 6 -35 13
-44 11 -15 15 -15 39 -3 23 12 29 12 39 0 6 -8 17 -14 24 -14 7 0 18 -7 25
-15 7 -8 21 -15 31 -15 23 0 69 49 69 73 0 13 5 17 18 13 9 -3 33 -8 53 -11
42 -8 69 12 69 51 0 15 4 23 10 19 6 -4 8 -11 5 -16 -4 -5 3 -9 14 -9 11 0 33
-17 50 -37 26 -32 33 -35 53 -26 13 5 39 8 59 6 31 -4 37 -2 42 17 8 32 52 24
52 -9 0 -13 6 -26 12 -28 13 -5 17 2 27 49 8 34 33 37 45 6 11 -29 -20 -93
-49 -101 -26 -7 -26 -24 0 -32 11 -3 23 -18 26 -33 10 -41 24 -55 40 -41 8 6
14 19 14 28 0 9 9 24 20 34 14 12 20 29 20 57 0 45 8 49 35 19 l19 -20 18 23
c13 18 20 20 29 11 6 -6 17 -9 24 -7 7 3 30 -2 51 -12 22 -9 50 -18 63 -20 13
-1 26 -6 30 -10 3 -4 -4 -4 -16 -1 -14 3 -23 1 -23 -6 0 -15 61 -57 82 -57 9
0 21 -7 28 -15 23 -27 30 -16 30 49 0 48 -4 65 -16 70 -20 8 -17 123 4 118 9
-2 12 6 10 20 -2 18 -16 28 -68 46 -147 51 -152 53 -165 86 -10 24 -14 131
-17 451 -3 414 -3 420 17 423 11 1 65 -15 119 -38 55 -22 103 -40 108 -40 4 0
8 11 8 24 0 17 -7 26 -25 30 -31 8 -47 38 -43 79 3 33 14 37 51 22 14 -6 17
-2 17 19 0 21 -7 29 -28 37 -27 9 -28 12 -29 77 l-1 68 29 -4 c22 -3 29 0 29
12 0 12 -7 14 -28 10 -19 -4 -32 -1 -41 9 -10 13 -6 17 31 25 l43 10 -46 1
c-45 1 -46 2 -58 42 -12 38 -15 41 -41 35 -23 -4 -33 0 -48 19 -14 17 -30 25
-52 25 -44 0 -93 53 -84 93 4 22 0 33 -20 52 -16 15 -26 35 -26 53 0 27 -15
52 -32 52 -14 0 -9 -36 12 -84 16 -35 18 -50 10 -66 -6 -11 -15 -20 -19 -20
-13 0 -36 40 -51 90 -11 35 -15 40 -18 23 -2 -13 -7 -23 -10 -23 -18 0 -52 33
-52 50 0 42 -31 98 -61 111 -27 11 -33 10 -52 -9 l-21 -22 20 -79 c11 -44 17
-78 14 -76 -4 2 -5 -7 -2 -20 4 -21 1 -25 -21 -25 -31 0 -90 24 -107 44 -13
17 -40 22 -40 8 0 -4 10 -12 23 -17 19 -9 22 -18 23 -73 2 -59 0 -63 -20 -60
-11 2 -21 8 -22 13 0 6 -4 19 -9 29 -6 14 -2 24 16 39 l24 19 -30 -3 c-24 -3
-30 0 -29 14 2 17 -4 18 -120 18 -16 0 -38 -7 -50 -15 -20 -13 -37 -7 -207 71
-101 47 -186 87 -188 89 -8 8 23 35 35 30 7 -3 15 2 18 10 3 9 -1 14 -11 14
-26 0 -83 59 -76 79 5 13 3 14 -7 4 -10 -10 -19 -7 -42 12 -26 22 -31 23 -44
10 -9 -8 -20 -15 -25 -15 -11 0 -47 20 -71 39 -22 17 -65 7 -73 -18 -3 -11
-12 -21 -19 -24 -13 -5 -262 85 -321 117 -16 9 -40 16 -52 16 -37 0 -51 10
-45 32 5 20 2 21 -44 15 -40 -4 -74 3 -189 39 -116 37 -404 118 -582 164 -38
9 -43 14 -43 38 0 53 -65 93 -98 60 -7 -7 -12 -23 -12 -36 0 -23 -2 -24 -47
-17 -27 4 -50 9 -53 12 -3 2 10 17 29 32 35 29 31 49 -6 28 -92 -53 -72 -51
-222 -23 -134 25 -344 59 -368 59 -7 0 -13 2 -13 3 0 7 93 64 105 64 17 0 28
17 20 30 -5 8 -141 -56 -172 -82 -7 -5 -26 -7 -43 -3 -35 8 -36 16 -18 142 12
82 12 84 -15 138 -25 52 -50 69 -70 48z m-685 -393 c-5 -60 -24 -78 -88 -82
-31 -1 -58 1 -61 5 -3 5 0 29 7 53 9 31 19 46 34 49 11 2 30 6 41 9 11 2 31 3
45 3 22 -2 25 -6 22 -37z m240 10 c-2 -14 -9 -36 -15 -50 -11 -23 -18 -25 -86
-28 l-74 -3 6 28 c3 15 10 41 16 56 11 27 12 28 83 25 71 -3 73 -4 70 -28z
m223 18 c3 -7 -1 -33 -8 -58 -13 -44 -13 -45 -60 -48 -63 -4 -89 11 -81 46 18
71 19 72 84 72 39 0 62 -4 65 -12z m173 -4 c25 -7 28 -33 11 -83 -11 -31 -12
-32 -68 -29 l-56 3 2 43 c1 24 7 50 14 58 12 15 57 18 97 8z m-844 -12 c6 -10
-13 -81 -26 -99 -9 -12 -105 -29 -114 -20 -9 9 16 84 32 97 12 11 43 20 96 29
4 0 9 -3 12 -7z m1067 -19 c5 -5 3 -29 -4 -53 -12 -42 -15 -45 -51 -48 -22 -2
-50 -1 -64 3 -23 6 -24 9 -18 51 3 25 9 50 12 56 8 12 112 4 125 -9z m172 -18
c33 -5 37 -9 37 -35 0 -16 -5 -41 -10 -56 -10 -26 -12 -26 -68 -20 -31 4 -60
10 -65 15 -10 10 8 92 23 101 7 4 20 6 29 4 9 -1 33 -6 54 -9z m-1423 -3 c0
-5 -7 -29 -16 -55 -14 -42 -20 -47 -62 -60 -43 -12 -47 -12 -50 5 -6 35 31 92
68 105 42 14 60 16 60 5z m1667 -44 c9 -7 11 -22 7 -47 -9 -53 -22 -62 -77
-55 -70 10 -78 19 -65 78 l10 49 56 -7 c31 -4 62 -12 69 -18z m-1851 -72 c-11
-27 -27 -42 -58 -56 -51 -23 -57 -15 -33 47 14 36 25 49 59 64 40 18 41 18 44
0 2 -11 -4 -35 -12 -55z m2059 38 c16 -6 20 -51 8 -93 -5 -22 -9 -23 -56 -17
-79 11 -90 20 -82 69 4 23 10 46 12 51 5 8 88 1 118 -10z m-1167 -36 c7 -7 12
-25 12 -42 0 -41 -218 -874 -236 -902 -8 -12 -27 -27 -42 -32 -15 -6 -139 -13
-277 -16 -369 -7 -619 -50 -804 -137 -47 -22 -88 -36 -93 -31 -9 9 275 870
306 931 54 104 326 197 686 234 19 2 125 5 236 5 144 2 203 -1 212 -10z m1365
-9 c33 -9 37 -13 37 -42 0 -18 -3 -43 -7 -55 -5 -22 -9 -23 -51 -17 -25 4 -56
11 -70 16 -23 9 -24 13 -18 55 9 71 4 69 109 43z m-948 -9 c351 -40 869 -135
915 -169 15 -11 26 -30 28 -47 4 -37 -135 -869 -149 -896 -19 -35 -51 -38
-161 -17 -314 61 -708 116 -1003 139 -82 7 -158 17 -167 22 -12 6 -18 20 -18
42 0 26 95 414 211 857 5 20 18 48 30 63 26 33 65 34 314 6z m-1460 -49 c-11
-35 -26 -56 -48 -70 -17 -11 -33 -19 -34 -17 -2 1 4 24 13 49 14 42 69 105 81
93 3 -3 -2 -27 -12 -55z m2638 0 c23 -9 27 -16 27 -49 0 -21 -6 -46 -12 -55
-12 -15 -18 -15 -67 -2 -30 8 -58 18 -64 24 -5 5 -7 29 -2 56 l7 47 42 -5 c23
-4 54 -11 69 -16z m-2747 -89 c-9 -27 -26 -58 -36 -67 -24 -22 -24 -19 -5 34
14 40 47 92 54 86 1 -2 -4 -26 -13 -53z m2944 34 c42 -12 45 -15 48 -52 2 -21
-3 -47 -10 -57 -12 -16 -16 -16 -68 -1 -30 9 -59 20 -64 24 -5 5 -5 29 -2 54
8 52 18 56 96 32z m215 -65 l50 -18 -2 -47 c-1 -26 -4 -50 -7 -53 -9 -10 -115
19 -127 34 -7 8 -9 30 -5 58 8 52 14 53 91 26z m-299 -86 c265 -74 534 -161
784 -253 220 -81 260 -106 260 -159 0 -15 -13 -214 -29 -441 -19 -269 -33
-418 -41 -427 -7 -8 -21 -15 -32 -15 -11 0 -117 31 -236 70 -285 91 -490 149
-811 229 -240 60 -266 69 -285 94 l-20 27 72 448 c63 395 74 449 93 465 12 9
27 17 34 17 7 0 102 -25 211 -55z m507 19 c26 -9 50 -21 54 -27 9 -14 4 -90
-6 -100 -8 -8 -97 19 -118 36 -14 10 -17 64 -7 91 8 20 19 20 77 0z m210 -75
c31 -12 58 -27 61 -34 2 -7 2 -32 -1 -55 -6 -40 -7 -42 -34 -36 -15 3 -45 13
-66 23 -35 18 -38 21 -36 58 3 41 9 65 17 65 2 0 29 -10 59 -21z m507 -89 c23
-13 24 -14 5 -21 -36 -14 -64 -10 -64 9 1 9 -3 28 -7 42 l-7 25 24 -21 c13
-12 35 -27 49 -34z m-280 1 c31 -14 35 -21 38 -60 2 -24 -1 -48 -7 -54 -12
-12 -100 19 -119 42 -11 14 -8 71 5 94 5 9 32 2 83 -22z m185 -75 l55 -25 0
-50 c0 -27 -3 -52 -8 -55 -4 -2 -32 8 -62 22 -51 25 -55 30 -58 66 -3 37 2 66
12 66 3 0 30 -11 61 -24z m205 -91 c49 -25 50 -26 50 -70 0 -58 -14 -64 -79
-31 -49 26 -51 28 -51 70 0 65 7 68 80 31z m262 -128 c4 -7 8 -31 8 -54 0 -52
-8 -53 -85 -16 -55 27 -55 27 -55 73 0 26 3 49 6 52 7 8 117 -40 126 -55z
m-265 -38 c392 -176 610 -272 744 -329 201 -86 205 -88 218 -118 9 -19 14
-147 18 -442 7 -493 15 -460 -106 -418 -42 15 -211 78 -376 141 -823 315 -765
286 -765 386 0 131 51 825 61 838 19 22 42 16 206 -58z m415 -23 c31 -14 58
-32 62 -41 11 -31 6 -75 -10 -82 -16 -6 -88 23 -110 45 -19 19 -18 102 1 102
2 0 27 -11 57 -24z m185 -83 c60 -27 73 -42 73 -84 0 -21 -4 -41 -10 -44 -12
-7 -101 31 -112 48 -9 15 -10 81 -1 90 8 9 7 9 50 -10z m245 -116 c11 -17 10
-85 -1 -92 -6 -3 -31 5 -58 17 -44 21 -48 27 -51 62 -5 64 0 69 55 45 26 -11
51 -26 55 -32z m128 -47 c39 -20 40 -22 40 -71 0 -48 -1 -50 -22 -43 -67 20
-78 32 -78 84 0 28 5 50 10 50 6 0 29 -9 50 -20z m-4675 -30 c4 -6 -1 -35 -10
-65 -17 -59 -16 -59 -108 -69 -60 -7 -66 5 -41 77 19 50 20 52 64 58 73 10 88
10 95 -1z m254 -12 c0 -13 -6 -41 -13 -63 l-12 -40 -73 -5 c-40 -3 -78 -2 -84
2 -11 7 8 92 26 116 6 7 36 12 83 12 70 0 74 -1 73 -22z m238 11 c10 -10 -4
-90 -21 -118 -10 -16 -121 -14 -134 2 -10 12 5 87 23 117 8 14 118 13 132 -1z
m215 -17 c5 -5 4 -31 -5 -63 l-13 -54 -65 0 -64 0 1 40 c1 22 7 53 13 69 11
28 13 29 68 23 31 -3 60 -10 65 -15z m-939 -25 c-1 -16 -10 -45 -20 -65 -16
-33 -24 -38 -67 -45 -75 -12 -78 -8 -55 63 21 61 23 63 89 73 45 8 55 3 53
-26z m1159 5 c6 -6 4 -30 -4 -63 l-13 -54 -61 -3 c-77 -4 -87 6 -72 68 16 67
24 73 87 67 29 -3 58 -10 63 -15z m3926 -8 c17 -12 22 -24 22 -60 0 -45 -1
-46 -27 -39 -57 13 -73 32 -73 81 0 45 1 46 28 39 15 -3 37 -13 50 -21z
m-3744 -4 c12 0 30 -6 39 -12 14 -12 15 -19 4 -68 l-13 -55 -56 1 c-86 2 -92
6 -83 62 11 71 21 85 57 78 17 -3 40 -6 52 -6z m-1551 -52 c-8 -29 -19 -58
-24 -64 -11 -14 -99 -37 -107 -29 -8 8 26 111 41 123 14 12 42 19 79 21 l27 1
-16 -52z m1790 16 c21 -4 41 -12 43 -19 7 -16 -15 -108 -27 -116 -11 -6 -115
8 -132 18 -10 6 0 88 15 116 7 13 17 17 36 13 15 -3 44 -8 65 -12z m-1958 -36
c-13 -60 -34 -98 -60 -110 -14 -6 -27 -9 -30 -6 -3 2 4 32 16 65 13 39 28 64
42 71 35 17 39 14 32 -20z m2213 -9 c23 -9 24 -13 19 -60 -9 -73 -16 -78 -84
-66 -77 12 -85 21 -72 77 16 75 14 73 66 65 25 -4 57 -11 71 -16z m241 -45
c22 -5 23 -8 18 -61 -3 -31 -10 -60 -16 -66 -14 -14 -138 11 -145 30 -8 19 12
106 26 114 9 6 36 2 117 -17z m-2627 -54 c-14 -40 -28 -61 -53 -78 -18 -13
-35 -19 -37 -14 -1 5 7 34 18 65 15 39 30 62 53 76 18 11 33 17 35 13 1 -4 -6
-32 -16 -62z m2848 6 c34 -11 35 -12 34 -65 -2 -71 -10 -77 -80 -63 -76 16
-85 25 -78 76 13 80 23 84 124 52z m-2965 -88 c-16 -48 -43 -93 -51 -85 -7 7
19 83 38 115 28 46 33 33 13 -30z m3215 28 c22 -10 25 -17 24 -65 -1 -29 -6
-57 -12 -63 -11 -11 -133 18 -144 35 -6 10 -4 36 8 96 5 22 8 23 52 16 26 -4
58 -12 72 -19z m-847 -56 c-7 -25 -36 -23 -41 3 -3 12 3 17 21 17 20 0 24 -4
20 -20z m1045 9 c69 -17 75 -24 67 -83 -4 -28 -10 -55 -15 -59 -9 -11 -133 21
-142 36 -7 11 -2 73 8 105 4 15 22 15 82 1z m-3333 -151 c-46 -131 -60 -158
-75 -158 -10 0 -37 70 -48 125 -6 26 -14 39 -23 37 -25 -4 74 76 131 107 30
16 56 28 59 26 2 -3 -18 -64 -44 -137z m3570 84 c59 -18 60 -19 63 -57 7 -84
-9 -97 -92 -73 -64 18 -69 25 -61 82 10 76 5 73 90 48z m-1425 -59 c0 -5 -13
-17 -27 -27 l-27 -20 20 27 c18 26 34 35 34 20z m824 -2 c10 -15 -22 -20 -34
-5 -10 11 -9 14 8 14 12 0 23 -4 26 -9z m841 -10 l50 -18 3 -49 c3 -73 -5 -80
-72 -64 -31 7 -62 20 -68 27 -11 14 -12 98 -2 115 8 12 33 9 89 -11z m-691
-79 c-4 -15 -6 -39 -5 -54 4 -51 -28 -22 -42 37 -3 11 -8 28 -12 37 -5 13 0
17 27 20 38 3 43 -2 32 -40z m908 8 c28 -11 55 -25 59 -32 9 -14 1 -98 -10
-111 -9 -9 -123 29 -133 46 -7 11 -2 72 8 105 5 16 15 15 76 -8z m-757 -30 c3
-5 3 -21 -1 -35 -5 -21 -12 -25 -40 -25 -28 0 -34 4 -34 20 0 14 6 20 18 18
11 -2 17 3 16 15 -2 18 30 24 41 7z m-3151 -25 c-4 -8 -10 -15 -15 -15 -5 0
-9 7 -9 15 0 8 7 15 15 15 9 0 12 -6 9 -15z m4149 -29 c37 -16 37 -16 37 -76
0 -69 -4 -72 -85 -41 -49 19 -50 19 -53 66 -6 83 8 89 101 51z m-1873 -21 c0
-8 -4 -15 -10 -15 -5 0 -10 7 -10 15 0 8 5 15 10 15 6 0 10 -7 10 -15z m-2507
-112 c-15 -49 -19 -53 -30 -37 -17 24 -16 51 3 108 l17 49 13 -33 c12 -29 12
-40 -3 -87z m3347 92 c0 -8 -16 -15 -42 -17 -34 -4 -48 0 -64 16 l-22 21 64
-3 c44 -3 64 -8 64 -17z m-140 -15 c0 -5 -7 -10 -16 -10 -8 0 -12 5 -9 10 3 6
10 10 16 10 5 0 9 -4 9 -10z m-120 -10 c0 -5 -4 -10 -10 -10 -5 0 -10 5 -10
10 0 6 5 10 10 10 6 0 10 -4 10 -10z m1493 -9 c24 -10 47 -27 51 -37 9 -25 -4
-104 -18 -104 -23 0 -109 38 -116 51 -4 8 -5 35 -2 62 5 55 15 58 85 28z m237
-95 l45 -21 3 -59 3 -59 -28 6 c-15 3 -49 15 -75 26 l-48 20 0 54 c0 30 3 57
7 60 8 9 34 1 93 -27z m-540 -28 c0 -30 -1 -31 -15 -12 -19 25 -19 44 0 44 10
0 15 -10 15 -32z m-150 9 c0 -2 -9 -12 -19 -21 -13 -11 -21 -14 -26 -7 -3 6 4
15 17 20 28 12 28 12 28 8z m895 -58 c63 -23 72 -37 67 -104 -5 -52 -8 -52
-92 -12 -42 21 -45 25 -48 66 -3 42 2 71 12 71 3 0 30 -9 61 -21z m-933 -14
c6 -28 -6 -34 -16 -9 -8 22 -7 34 3 34 5 0 11 -11 13 -25z m1187 -85 c17 -9
21 -20 21 -65 0 -64 -9 -68 -84 -35 l-46 19 0 54 c0 30 3 56 6 60 6 6 68 -14
103 -33z m165 -60 l46 -19 0 -57 0 -56 -31 6 c-72 14 -84 26 -87 89 -3 66 1
68 72 37z m186 -66 l40 -16 0 -60 c0 -66 2 -65 -77 -32 -32 12 -33 15 -33 68
0 63 5 66 70 40z m185 -64 c23 -9 25 -14 25 -70 0 -33 -2 -60 -4 -60 -16 0
-92 33 -98 43 -10 15 -10 91 -1 101 8 7 34 3 78 -14z m-565 0 c0 -5 -4 -10
-10 -10 -5 0 -10 5 -10 10 0 6 5 10 10 10 6 0 10 -4 10 -10z"/>
<path d="M3150 4397 c0 -11 83 -116 93 -116 17 -2 4 21 -43 71 -27 29 -49 49
-50 45z"/>
<path d="M3068 4368 c12 -12 24 -19 28 -15 10 10 -16 37 -34 37 -13 0 -12 -4
6 -22z"/>
<path d="M2858 4359 c-3 -8 -2 -54 1 -104 l6 -90 7 84 c6 80 -2 142 -14 110z"/>
<path d="M1202 4330 c0 -19 2 -27 5 -17 2 9 2 25 0 35 -3 9 -5 1 -5 -18z"/>
<path d="M1092 4300 c1 -16 6 -30 10 -30 4 0 8 14 8 30 0 17 -5 30 -10 30 -6
0 -9 -13 -8 -30z"/>
<path d="M2640 4318 c0 -17 20 -58 30 -58 5 0 10 4 10 9 0 10 -39 59 -40 49z"/>
<path d="M3025 4290 c3 -5 8 -10 11 -10 2 0 4 5 4 10 0 6 -5 10 -11 10 -5 0
-7 -4 -4 -10z"/>
<path d="M2825 4249 c-8 -34 1 -51 15 -29 12 19 13 47 1 54 -5 4 -12 -8 -16
-25z"/>
<path d="M3713 4257 c-25 -11 -31 -27 -10 -27 19 0 52 26 41 32 -5 3 -19 1
-31 -5z"/>
<path d="M5190 4243 c0 -31 15 -61 25 -51 9 9 -4 66 -16 73 -5 4 -9 -6 -9 -22z"/>
<path d="M5099 4243 c-13 -16 -12 -17 4 -4 16 13 21 21 13 21 -2 0 -10 -8 -17
-17z"/>
<path d="M1971 4234 c0 -11 3 -14 6 -6 3 7 2 16 -1 19 -3 4 -6 -2 -5 -13z"/>
<path d="M3550 4220 c0 -5 5 -10 11 -10 5 0 7 5 4 10 -3 6 -8 10 -11 10 -2 0
-4 -4 -4 -10z"/>
<path d="M4210 4226 c0 -2 8 -10 18 -17 15 -13 16 -12 3 4 -13 16 -21 21 -21
13z"/>
<path d="M2430 4215 c0 -3 12 -29 26 -57 19 -38 28 -48 37 -39 9 9 9 14 1 19
-6 4 -19 21 -28 39 -15 29 -36 52 -36 38z"/>
<path d="M3040 4181 c0 -11 4 -21 9 -21 18 0 21 18 6 30 -13 10 -15 9 -15 -9z"/>
<path d="M2520 4161 c0 -6 4 -13 10 -16 6 -3 7 1 4 9 -7 18 -14 21 -14 7z"/>
<path d="M3635 4148 c-60 -23 -84 -43 -40 -32 45 11 133 53 110 52 -11 0 -42
-9 -70 -20z"/>
<path d="M2687 4146 c-7 -17 16 -86 29 -86 7 0 -4 69 -15 89 -7 10 -9 10 -14
-3z"/>
<path d="M960 4130 c0 -5 5 -10 10 -10 6 0 10 5 10 10 0 6 -4 10 -10 10 -5 0
-10 -4 -10 -10z"/>
<path d="M2540 4120 c0 -5 5 -10 11 -10 5 0 7 5 4 10 -3 6 -8 10 -11 10 -2 0
-4 -4 -4 -10z"/>
<path d="M3895 4060 c-3 -5 1 -10 9 -10 8 0 18 5 21 10 3 6 -1 10 -9 10 -8 0
-18 -4 -21 -10z"/>
<path d="M835 4040 c-3 -5 1 -10 9 -10 9 0 16 5 16 10 0 6 -4 10 -9 10 -6 0
-13 -4 -16 -10z"/>
<path d="M5755 4000 c-3 -5 1 -10 9 -10 9 0 16 5 16 10 0 6 -4 10 -9 10 -6 0
-13 -4 -16 -10z"/>
<path d="M400 3971 c0 -6 4 -13 10 -16 6 -3 7 1 4 9 -7 18 -14 21 -14 7z"/>
<path d="M5030 3889 c7 -11 14 -19 16 -16 7 7 -7 37 -17 37 -6 0 -5 -9 1 -21z"/>
<path d="M3400 3850 c0 -5 5 -10 10 -10 6 0 10 5 10 10 0 6 -4 10 -10 10 -5 0
-10 -4 -10 -10z"/>
<path d="M5080 3815 c0 -10 49 -100 71 -130 30 -42 16 -4 -27 73 -32 56 -44
72 -44 57z"/>
<path d="M3940 3791 c0 -5 5 -13 10 -16 6 -3 10 -2 10 4 0 5 -4 13 -10 16 -5
3 -10 2 -10 -4z"/>
<path d="M4436 3770 c3 -14 10 -32 15 -40 7 -13 8 -13 8 0 0 8 -6 26 -15 40
l-15 25 7 -25z"/>
<path d="M4837 3733 c-4 -3 -7 -11 -7 -17 0 -6 5 -5 12 2 6 6 9 14 7 17 -3 3
-9 2 -12 -2z"/>
<path d="M5170 3726 c0 -10 6 -30 14 -44 8 -15 22 -49 31 -75 26 -73 29 -49 4
34 -22 76 -49 122 -49 85z"/>
<path d="M4181 3681 c-8 -14 -6 -22 8 -35 37 -33 74 -9 51 33 -13 26 -46 27
-59 2z"/>
<path d="M360 3681 c0 -6 5 -13 10 -16 6 -3 10 1 10 9 0 9 -4 16 -10 16 -5 0
-10 -4 -10 -9z"/>
<path d="M4496 3665 c-3 -8 -1 -15 3 -15 5 0 11 7 15 15 3 8 1 15 -3 15 -5 0
-11 -7 -15 -15z"/>
<path d="M4860 3670 c0 -5 5 -10 11 -10 5 0 7 5 4 10 -3 6 -8 10 -11 10 -2 0
-4 -4 -4 -10z"/>
<path d="M4060 3656 c0 -9 5 -16 10 -16 6 0 10 4 10 9 0 6 -4 13 -10 16 -5 3
-10 -1 -10 -9z"/>
<path d="M4550 3645 c-7 -8 -8 -15 -2 -15 5 0 15 7 22 15 7 8 8 15 2 15 -5 0
-15 -7 -22 -15z"/>
<path d="M320 3642 c0 -12 19 -26 26 -19 2 2 -2 10 -11 17 -9 8 -15 8 -15 2z"/>
<path d="M5173 3637 c4 -10 7 -27 7 -38 0 -10 5 -19 10 -19 16 0 11 47 -7 61
-15 12 -16 12 -10 -4z"/>
<path d="M5400 3633 c1 -18 18 -35 24 -24 4 6 4 16 1 21 -7 12 -25 13 -25 3z"/>
<path d="M4980 3620 c0 -13 40 -53 47 -46 9 9 -5 34 -26 46 -14 7 -21 7 -21 0z"/>
<path d="M380 3589 c0 -5 5 -7 10 -4 6 3 10 8 10 11 0 2 -4 4 -10 4 -5 0 -10
-5 -10 -11z"/>
<path d="M4947 3573 c-4 -3 -7 -11 -7 -17 0 -6 5 -5 12 2 6 6 9 14 7 17 -3 3
-9 2 -12 -2z"/>
<path d="M362 3484 c-25 -17 -29 -46 -9 -62 10 -9 17 -1 30 33 17 48 14 54
-21 29z"/>
<path d="M5074 3481 c11 -18 -11 -39 -37 -34 -12 2 -31 -3 -42 -11 -13 -10
-15 -15 -6 -16 11 0 11 -3 1 -15 -19 -23 4 -18 25 5 10 11 23 19 29 17 6 -3
19 2 28 10 14 13 18 12 27 -5 6 -11 18 -22 27 -26 13 -5 11 3 -9 36 -13 23
-30 44 -37 46 -8 3 -10 0 -6 -7z"/>
<path d="M4843 3422 c21 -21 34 -42 30 -47 -5 -4 0 -5 10 -2 10 4 21 7 23 7
15 0 -2 21 -40 48 -59 43 -68 40 -23 -6z"/>
<path d="M4920 3430 c0 -5 5 -10 11 -10 5 0 7 5 4 10 -3 6 -8 10 -11 10 -2 0
-4 -4 -4 -10z"/>
<path d="M198 3389 c-35 -20 -8 -67 31 -54 28 8 36 37 15 52 -21 15 -24 15
-46 2z"/>
<path d="M5070 3350 c0 -5 5 -10 11 -10 5 0 7 5 4 10 -3 6 -8 10 -11 10 -2 0
-4 -4 -4 -10z"/>
<path d="M4829 3323 c-13 -16 -12 -17 4 -4 16 13 21 21 13 21 -2 0 -10 -8 -17
-17z"/>
<path d="M4890 3325 c0 -8 9 -15 20 -15 11 0 20 7 20 15 0 8 -9 15 -20 15 -11
0 -20 -7 -20 -15z"/>
<path d="M5795 3286 c-33 -12 -69 -27 -80 -34 -18 -10 -17 -11 13 -12 44 0
129 28 136 46 8 22 -6 22 -69 0z"/>
<path d="M5000 3289 c0 -5 5 -7 10 -4 6 3 10 8 10 11 0 2 -4 4 -10 4 -5 0 -10
-5 -10 -11z"/>
<path d="M4895 3280 c3 -5 8 -10 11 -10 2 0 4 5 4 10 0 6 -5 10 -11 10 -5 0
-7 -4 -4 -10z"/>
<path d="M165 3231 c-3 -5 -1 -12 5 -16 5 -3 10 1 10 9 0 18 -6 21 -15 7z"/>
<path d="M121 3124 c-12 -15 -21 -30 -21 -33 0 -17 27 -39 55 -45 57 -13 70
-12 70 7 0 10 6 22 14 26 20 13 4 31 -28 31 -20 0 -30 6 -34 20 -7 28 -32 25
-56 -6z"/>
<path d="M22 3048 c-8 -23 -9 -35 0 -45 16 -20 35 1 36 42 2 45 -19 47 -36 3z"/>
<path d="M4 2914 c3 -9 6 -22 6 -30 0 -8 9 -14 20 -14 22 0 25 12 10 41 -13
23 -45 26 -36 3z"/>
<path d="M40 2810 c0 -5 5 -10 10 -10 6 0 10 5 10 10 0 6 -4 10 -10 10 -5 0
-10 -4 -10 -10z"/>
<path d="M1770 2275 c-8 -9 -8 -15 -2 -15 12 0 26 19 19 26 -2 2 -10 -2 -17
-11z"/>
<path d="M2024 2185 c-8 -33 1 -55 24 -55 43 0 51 49 11 70 -25 14 -28 13 -35
-15z"/>
<path d="M2309 2193 c-1 -5 0 -18 0 -30 2 -14 -5 -24 -18 -28 -29 -9 -26 -41
4 -61 36 -24 75 -6 75 34 0 15 5 33 11 39 15 15 3 33 -21 33 -10 0 -22 5 -25
10 -7 12 -25 13 -26 3z"/>
<path d="M2180 2126 c0 -9 5 -16 10 -16 6 0 10 4 10 9 0 6 -4 13 -10 16 -5 3
-10 -1 -10 -9z"/>
<path d="M245 2090 c20 -23 17 -24 -19 -10 -20 7 -26 6 -26 -4 0 -22 23 -34
67 -33 57 0 72 18 37 46 -15 12 -38 21 -52 21 -24 0 -25 -1 -7 -20z"/>
<path d="M3264 2075 c-8 -34 12 -58 37 -44 22 11 25 39 7 57 -19 19 -37 14
-44 -13z"/>
<path d="M3116 2044 c-6 -16 62 -87 76 -78 4 3 7 20 6 39 -1 25 -7 36 -25 44
-33 15 -50 14 -57 -5z"/>
<path d="M2600 2016 c0 -9 5 -16 10 -16 6 0 10 4 10 9 0 6 -4 13 -10 16 -5 3
-10 -1 -10 -9z"/>
<path d="M250 2010 c0 -5 7 -10 15 -10 8 0 15 5 15 10 0 6 -7 10 -15 10 -8 0
-15 -4 -15 -10z"/>
<path d="M2344 2009 c-8 -14 5 -26 38 -34 21 -5 29 -3 34 9 8 21 7 22 -33 29
-19 4 -35 2 -39 -4z"/>
<path d="M2496 1988 c-19 -27 -17 -30 22 -22 22 5 32 12 32 25 0 26 -35 24
-54 -3z"/>
<path d="M995 1950 c-3 -6 1 -7 9 -4 18 7 21 14 7 14 -6 0 -13 -4 -16 -10z"/>
<path d="M2943 1934 c-3 -8 -1 -20 6 -27 14 -14 47 15 37 32 -10 16 -36 13
-43 -5z"/>
<path d="M3550 1879 c-8 -4 -27 -12 -42 -18 -42 -16 -36 -35 8 -27 22 5 41 3
50 -5 11 -9 15 -8 20 5 4 9 23 26 43 36 l36 20 -50 -2 c-28 -1 -57 -5 -65 -9z"/>
<path d="M1090 1871 c0 -16 31 -41 51 -41 25 0 25 26 0 40 -24 13 -51 13 -51
1z"/>
<path d="M792 1808 c-17 -17 -15 -32 7 -52 21 -19 35 -15 51 14 18 33 -31 65
-58 38z"/>
<path d="M4435 1810 c3 -5 11 -10 16 -10 6 0 7 5 4 10 -3 6 -11 10 -16 10 -6
0 -7 -4 -4 -10z"/>
<path d="M4485 1810 c3 -5 8 -10 11 -10 2 0 4 5 4 10 0 6 -5 10 -11 10 -5 0
-7 -4 -4 -10z"/>
<path d="M4330 1799 c0 -5 5 -7 10 -4 6 3 10 8 10 11 0 2 -4 4 -10 4 -5 0 -10
-5 -10 -11z"/>
<path d="M3680 1761 c0 -10 7 -21 15 -25 11 -4 15 1 15 19 0 16 -6 25 -15 25
-8 0 -15 -9 -15 -19z"/>
<path d="M4417 1774 c-11 -11 3 -24 24 -24 12 0 19 5 17 13 -5 14 -31 21 -41
11z"/>
<path d="M4509 1763 c-13 -16 -12 -17 4 -4 9 7 17 15 17 17 0 8 -8 3 -21 -13z"/>
<path d="M3095 1760 c-7 -12 2 -30 16 -30 5 0 9 9 9 20 0 21 -15 27 -25 10z"/>
<path d="M2715 1751 c-3 -5 0 -13 5 -16 16 -10 62 4 55 15 -8 13 -52 13 -60 1z"/>
<path d="M4260 1751 c0 -6 5 -13 10 -16 6 -3 10 1 10 9 0 9 -4 16 -10 16 -5 0
-10 -4 -10 -9z"/>
<path d="M4450 1709 c0 -5 5 -7 10 -4 6 3 10 8 10 11 0 2 -4 4 -10 4 -5 0 -10
-5 -10 -11z"/>
<path d="M4325 1680 c-12 -13 -21 -16 -25 -10 -4 6 -14 2 -26 -11 -14 -16 -15
-21 -4 -17 9 3 24 -8 38 -29 12 -18 27 -33 31 -33 11 0 2 38 -10 46 -15 9 -10
22 10 29 12 3 19 14 18 25 -2 25 -9 25 -32 0z"/>
<path d="M360 1675 c-20 -25 -8 -50 25 -50 21 0 31 5 33 18 4 21 -14 47 -33
47 -7 0 -18 -7 -25 -15z"/>
<path d="M4510 1680 c0 -5 6 -10 13 -10 8 0 24 -11 37 -25 13 -14 29 -25 37
-25 7 0 -4 16 -26 35 -38 35 -61 44 -61 25z"/>
<path d="M2895 1660 c-4 -6 -3 -16 3 -22 13 -13 23 4 13 21 -7 10 -10 10 -16
1z"/>
<path d="M4482 1644 c10 -10 20 -15 24 -12 3 4 -5 12 -18 18 -22 12 -22 12 -6
-6z"/>
<path d="M672 1641 c-20 -12 -10 -46 13 -49 32 -4 52 14 39 35 -13 21 -33 27
-52 14z"/>
<path d="M3936 1625 c-3 -9 1 -18 10 -22 19 -7 28 2 21 22 -8 19 -23 19 -31 0z"/>
<path d="M3080 1606 c0 -17 14 -29 23 -20 8 8 -3 34 -14 34 -5 0 -9 -6 -9 -14z"/>
<path d="M288 1599 c-21 -12 -24 -59 -6 -77 27 -27 98 0 98 38 0 21 -35 50
-60 50 -8 0 -23 -5 -32 -11z"/>
<path d="M3385 1570 c-3 -5 -1 -10 4 -10 6 0 11 5 11 10 0 6 -2 10 -4 10 -3 0
-8 -4 -11 -10z"/>
<path d="M5210 1566 c0 -8 5 -18 10 -21 13 -8 42 14 34 26 -9 15 -44 10 -44
-5z"/>
<path d="M4773 1563 c-15 -5 -17 -23 -4 -23 5 0 11 7 15 15 3 8 4 15 3 14 -1
0 -8 -3 -14 -6z"/>
<path d="M4387 1543 c-4 -3 -7 -11 -7 -17 0 -6 5 -5 12 2 6 6 9 14 7 17 -3 3
-9 2 -12 -2z"/>
<path d="M3253 1523 c-13 -2 -23 -9 -23 -14 0 -12 10 -11 40 6 25 15 23 16
-17 8z"/>
<path d="M5355 1510 c-3 -5 -1 -19 5 -31 9 -17 8 -25 -7 -41 -17 -19 -17 -20
6 -39 51 -41 89 -11 83 66 -4 43 -6 47 -28 42 -14 -2 -27 0 -30 4 -7 12 -21
11 -29 -1z"/>
<path d="M4210 1419 c34 -92 38 -99 50 -99 11 0 1 40 -15 60 -6 8 -19 36 -29
62 -10 26 -22 50 -27 53 -5 4 5 -31 21 -76z"/>
<path d="M4400 1488 c0 -17 40 -52 49 -42 3 2 -7 17 -22 32 -21 21 -27 23 -27
10z"/>
<path d="M4230 1458 c0 -14 7 -31 16 -39 13 -11 14 -9 8 17 -9 40 -24 54 -24
22z"/>
<path d="M4000 1436 c0 -15 18 -31 26 -23 7 7 -7 37 -17 37 -5 0 -9 -6 -9 -14z"/>
<path d="M4770 1435 c-8 -9 -8 -15 -2 -15 12 0 26 19 19 26 -2 2 -10 -2 -17
-11z"/>
<path d="M5685 1430 c3 -5 10 -10 16 -10 5 0 9 5 9 10 0 6 -7 10 -16 10 -8 0
-12 -4 -9 -10z"/>
<path d="M5090 1400 c0 -19 6 -33 16 -37 18 -7 45 6 51 24 6 16 -25 43 -48 43
-15 0 -19 -7 -19 -30z"/>
<path d="M4816 1404 c-5 -14 -4 -15 9 -4 17 14 19 20 6 20 -5 0 -12 -7 -15
-16z"/>
<path d="M5250 1400 c0 -5 7 -10 15 -10 8 0 15 5 15 10 0 6 -7 10 -15 10 -8 0
-15 -4 -15 -10z"/>
<path d="M5605 1384 c-22 -33 -7 -48 24 -25 16 12 22 24 18 35 -9 23 -22 20
-42 -10z"/>
<path d="M4267 1385 c10 -31 85 -147 90 -141 6 6 -47 99 -77 136 -16 20 -19
21 -13 5z"/>
<path d="M4485 1369 c-11 -17 1 -21 15 -4 8 9 8 15 2 15 -6 0 -14 -5 -17 -11z"/>
<path d="M4971 1365 c0 -18 28 -61 29 -44 0 8 -7 24 -15 35 -8 10 -14 15 -14
9z"/>
<path d="M5495 1359 c-4 -5 -14 -8 -23 -7 -28 5 -26 -29 2 -34 28 -6 56 7 56
26 0 17 -27 29 -35 15z"/>
<path d="M140 1315 c0 -10 7 -15 18 -13 21 4 19 22 -2 26 -10 2 -16 -3 -16
-13z"/>
<path d="M5892 1227 c-7 -8 -10 -16 -7 -19 10 -10 56 4 52 16 -6 17 -32 19
-45 3z"/>
<path d="M4390 1182 c0 -12 19 -26 26 -19 2 2 -2 10 -11 17 -9 8 -15 8 -15 2z"/>
<path d="M3545 1130 c-3 -5 -1 -10 4 -10 6 0 11 5 11 10 0 6 -2 10 -4 10 -3 0
-8 -4 -11 -10z"/>
<path d="M4860 1090 c0 -5 5 -10 11 -10 5 0 7 5 4 10 -3 6 -8 10 -11 10 -2 0
-4 -4 -4 -10z"/>
<path d="M5220 892 c0 -12 19 -26 26 -19 2 2 -2 10 -11 17 -9 8 -15 8 -15 2z"/>
<path d="M4197 863 c-4 -3 -7 -11 -7 -17 0 -6 5 -5 12 2 6 6 9 14 7 17 -3 3
-9 2 -12 -2z"/>
<path d="M4238 863 c-3 -4 0 -24 6 -43 l10 -35 4 34 c3 32 -10 62 -20 44z"/>
</g>
</svg>
